<?xml version="1.0" encoding="UTF-8"?>
<!DOCTYPE svg PUBLIC "-//W3C//DTD SVG 1.1//EN" "http://www.w3.org/Graphics/SVG/1.1/DTD/svg11.dtd">
<svg xmlns="http://www.w3.org/2000/svg" version="1.1" width="580px" height="157px" style="shape-rendering:geometricPrecision; text-rendering:geometricPrecision; image-rendering:optimizeQuality; fill-rule:evenodd; clip-rule:evenodd" xmlns:xlink="http://www.w3.org/1999/xlink">
<g><path style="opacity:0.958" fill="#5d0f12" d="M 12.5,20.5 C 21.8393,20.3335 31.1726,20.5002 40.5,21C 52.126,40.4177 63.626,59.9177 75,79.5C 75.5,59.8362 75.6666,40.1695 75.5,20.5C 82.5,20.5 89.5,20.5 96.5,20.5C 96.5,56.5 96.5,92.5 96.5,128.5C 88.8261,128.666 81.1594,128.5 73.5,128C 59.9549,105.746 46.7883,83.2464 34,60.5C 33.5,83.1642 33.3334,105.831 33.5,128.5C 26.5,128.5 19.5,128.5 12.5,128.5C 12.5,92.5 12.5,56.5 12.5,20.5 Z"/></g>
<g><path style="opacity:0.962" fill="#5d0f12" d="M 120.5,20.5 C 139.836,20.3334 159.17,20.5 178.5,21C 199.711,22.8744 209.211,34.3744 207,55.5C 204.817,63.8515 199.65,69.5182 191.5,72.5C 208.058,79.6195 213.891,91.9529 209,109.5C 204.918,118.584 198.085,124.417 188.5,127C 165.878,128.447 143.211,128.947 120.5,128.5C 120.5,92.5 120.5,56.5 120.5,20.5 Z M 146.5,41.5 C 155.839,41.3335 165.173,41.5002 174.5,42C 181.062,46.5988 182.229,52.4321 178,59.5C 176.581,60.4601 175.081,61.2935 173.5,62C 164.506,62.4998 155.506,62.6664 146.5,62.5C 146.5,55.5 146.5,48.5 146.5,41.5 Z M 146.5,83.5 C 155.506,83.3336 164.506,83.5002 173.5,84C 182.095,87.0244 184.929,92.8577 182,101.5C 180.039,104.135 177.539,105.969 174.5,107C 165.173,107.5 155.839,107.666 146.5,107.5C 146.5,99.5 146.5,91.5 146.5,83.5 Z"/></g>
<g><path style="opacity:0.952" fill="#5d0f12" d="M 229.5,20.5 C 239.19,20.1682 248.856,20.5016 258.5,21.5C 269.467,40.9626 280.634,60.2959 292,79.5C 292.5,59.8362 292.667,40.1695 292.5,20.5C 299.5,20.5 306.5,20.5 313.5,20.5C 313.5,56.5 313.5,92.5 313.5,128.5C 305.58,128.815 297.747,128.482 290,127.5C 277,105.167 264,82.8333 251,60.5C 250.5,83.1642 250.333,105.831 250.5,128.5C 243.5,128.5 236.5,128.5 229.5,128.5C 229.5,92.5 229.5,56.5 229.5,20.5 Z"/></g>
<g><path style="opacity:0.971" fill="#5d0f12" d="M 337.5,20.5 C 346.833,20.5 356.167,20.5 365.5,20.5C 365.333,45.8355 365.5,71.1689 366,96.5C 368.116,105.401 373.783,109.401 383,108.5C 390.981,109.633 396.647,106.633 400,99.5C 401.414,73.1947 401.914,46.8614 401.5,20.5C 408.833,20.5 416.167,20.5 423.5,20.5C 423.667,47.1687 423.5,73.8354 423,100.5C 421.113,116.39 412.279,125.89 396.5,129C 385.5,131 374.5,131 363.5,129C 348.762,125.596 340.262,116.43 338,101.5C 337.5,74.5021 337.333,47.5021 337.5,20.5 Z"/></g>
<g><path style="opacity:0.961" fill="#5d0f12" d="M 435.5,20.5 C 452.833,20.5 470.167,20.5 487.5,20.5C 487.5,25.1667 487.5,29.8333 487.5,34.5C 481.833,34.5 476.167,34.5 470.5,34.5C 470.5,50.5 470.5,66.5 470.5,82.5C 464.5,82.5 458.5,82.5 452.5,82.5C 452.5,66.5 452.5,50.5 452.5,34.5C 446.833,34.5 441.167,34.5 435.5,34.5C 435.5,29.8333 435.5,25.1667 435.5,20.5 Z"/></g>
<g><path style="opacity:0.946" fill="#5d0f12" d="M 492.5,20.5 C 501.525,20.1685 510.525,20.5018 519.5,21.5C 522.973,31.9186 526.639,42.2519 530.5,52.5C 534.6,42.0318 538.6,31.5318 542.5,21C 551.494,20.5002 560.494,20.3336 569.5,20.5C 569.5,41.1667 569.5,61.8333 569.5,82.5C 563.167,82.5 556.833,82.5 550.5,82.5C 550.667,69.1625 550.5,55.8292 550,42.5C 545.136,55.4239 540.47,68.4239 536,81.5C 531.333,82.8333 526.667,82.8333 522,81.5C 517.667,68.5 513.333,55.5 509,42.5C 508.5,55.8292 508.333,69.1625 508.5,82.5C 503.167,82.5 497.833,82.5 492.5,82.5C 492.5,61.8333 492.5,41.1667 492.5,20.5 Z"/></g>
</svg>
